<svg width="344" height="316" viewBox="0 0 344 316" fill="none" xmlns="http://www.w3.org/2000/svg">
<path d="M251.209 46.5745L177.74 1.50465C174.474 -0.501551 170.457 -0.501551 167.191 1.50465L93.7229 46.5745C90.4567 48.5807 88.4414 52.2727 88.4414 56.2851V146.439C88.4414 150.451 90.4567 154.143 93.7229 156.149L167.191 201.219C168.817 202.222 170.652 202.724 172.473 202.724C174.293 202.724 176.114 202.222 177.754 201.219L251.222 156.149C254.489 154.143 256.504 150.451 256.504 146.439V56.2851C256.504 52.2727 254.489 48.5807 251.222 46.5745H251.209ZM117.49 147.024C135.683 140.56 154.71 136.464 173.668 133.05C194.738 129.261 215.962 126.516 237.171 123.576V129.567C218.269 132.368 199.478 136.101 180.979 140.88C165.009 145.004 148.706 149.769 133.723 156.971L117.504 147.024H117.49ZM107.761 134.583V117.795C123.786 118.909 139.714 121.027 155.489 124.022C139.38 127.324 123.397 131.434 108.094 137.411C107.872 136.505 107.747 135.558 107.747 134.583H107.761ZM172.459 27.0001C183.758 27.0001 192.945 36.2092 192.945 47.5358C192.945 58.8625 183.758 68.0716 172.459 68.0716C161.159 68.0716 151.972 58.8625 151.972 47.5358C151.972 36.2092 161.159 27.0001 172.459 27.0001ZM113.042 58.4306L137.462 43.4538C137.309 44.8052 137.212 46.1705 137.212 47.5498C137.212 67.0267 153.028 82.8812 172.459 82.8812C191.889 82.8812 207.706 67.0267 207.706 47.5498C207.706 46.1705 207.622 44.8052 207.456 43.4538L231.876 58.4306C235.142 60.4368 237.157 64.1288 237.157 68.1412V111.233C220.395 113.573 203.606 115.761 186.886 118.394C160.979 111.79 134.446 107.304 107.761 105.465V68.1273C107.761 64.1149 109.776 60.4229 113.042 58.4167V58.4306ZM231.889 144.293L177.74 177.521C176.114 178.524 174.28 179.026 172.459 179.026C170.638 179.026 168.817 178.524 167.177 177.521L146.385 164.759C158.991 159.493 172.362 155.787 185.468 152.444C201.521 148.348 217.782 145.032 234.141 142.426C233.474 143.151 232.723 143.778 231.876 144.293H231.889Z" fill="white"/>
<path d="M52.7315 235.268V238.765C52.7315 241.621 51.0776 243.181 48.2422 243.181H33.3846V290.801C33.3846 293.657 31.8279 295.217 28.9787 295.217H23.4748C20.6256 295.217 19.069 293.657 19.069 290.801V243.181H4.40587C1.55665 243.181 0 241.621 0 238.765V235.268C0 232.412 1.55665 230.852 4.40587 230.852H48.2422C51.0915 230.852 52.7315 232.412 52.7315 235.268Z" fill="white"/>
<path d="M50.7109 290.787V252.363C50.7109 249.507 52.2676 247.947 55.1168 247.947H60.162C63.0112 247.947 64.5679 249.507 64.5679 252.363V258.242C66.1245 249.605 72.7264 246.93 76.7709 246.93L78.3276 247.027C80.5236 247.208 80.9822 248.964 80.9822 250.789V257.225C80.9822 259.803 79.7035 260.903 77.7716 260.625C76.9516 260.527 76.215 260.444 75.4783 260.444C69.9745 260.444 64.9293 264.024 64.9293 275.88V290.774C64.9293 293.63 63.3726 295.19 60.5234 295.19H55.1168C52.2676 295.19 50.7109 293.63 50.7109 290.774V290.787Z" fill="white"/>
<path d="M85.4688 234.989C85.4688 230.768 88.4987 227.55 94.0025 227.55C99.5064 227.55 102.536 230.768 102.536 234.989C102.536 239.211 99.2284 242.346 94.0025 242.346C88.7766 242.346 85.4688 239.127 85.4688 234.989ZM86.942 290.787V252.363C86.942 249.507 88.4987 247.946 91.3479 247.946H96.6711C99.5203 247.946 101.16 249.507 101.16 252.363V290.787C101.16 293.643 99.5064 295.203 96.6711 295.203H91.3479C88.4987 295.203 86.942 293.643 86.942 290.787Z" fill="white"/>
<path d="M108.941 311.379V252.363C108.941 249.507 110.498 247.947 113.347 247.947H118.754C121.603 247.947 123.16 249.507 123.16 252.363V254.564C126.551 249.326 132.055 246.93 138.295 246.93C151.499 246.93 160.95 257.685 160.95 271.561C160.95 285.438 151.499 296.193 138.295 296.193C132.055 296.193 126.551 293.797 123.16 288.475V311.365C123.16 314.221 121.603 315.781 118.754 315.781H113.347C110.498 315.781 108.941 314.221 108.941 311.365V311.379ZM146.732 271.575C146.732 264.317 142.423 258.34 134.987 258.34C127.552 258.34 122.979 264.038 122.979 271.575C122.979 279.112 127.746 284.811 134.987 284.811C142.229 284.811 146.732 278.931 146.732 271.575Z" fill="white"/>
<path d="M166.062 311.379V252.363C166.062 249.507 167.619 247.947 170.468 247.947H175.875C178.724 247.947 180.281 249.507 180.281 252.363V254.564C183.672 249.326 189.176 246.93 195.416 246.93C208.62 246.93 218.071 257.685 218.071 271.561C218.071 285.438 208.62 296.193 195.416 296.193C189.176 296.193 183.672 293.797 180.281 288.475V311.365C180.281 314.221 178.724 315.781 175.875 315.781H170.468C167.619 315.781 166.062 314.221 166.062 311.365V311.379ZM203.839 271.575C203.839 264.317 199.53 258.34 192.095 258.34C184.659 258.34 180.086 264.038 180.086 271.575C180.086 279.112 184.853 284.811 192.095 284.811C199.336 284.811 203.839 278.931 203.839 271.575Z" fill="white"/>
<path d="M222.633 271.755C222.633 258.422 232.223 246.942 247.456 246.942C260.312 246.942 270.875 255.037 271.487 270.111C271.57 272.772 269.819 273.97 267.178 273.97H235.656C235.475 279.571 240.854 285.005 249.568 285.005C252.821 285.005 256.17 284.183 259.603 282.148C261.98 280.769 263.912 280.95 265.594 283.068L266.566 284.35C268.332 286.551 268.151 289.031 265.774 290.87C260.576 294.827 254.502 296.206 248.693 296.206C232.501 296.206 222.633 285.269 222.633 271.755ZM258.728 266.057C257.491 259.718 252.306 257.698 247.636 257.698C242.967 257.698 237.518 259.899 236.017 266.057H258.728Z" fill="white"/>
<path d="M275.957 290.787V252.363C275.957 249.507 277.514 247.947 280.363 247.947H285.408C288.257 247.947 289.814 249.507 289.814 252.363V258.242C291.371 249.605 297.973 246.93 302.017 246.93L303.574 247.027C305.77 247.208 306.228 248.964 306.228 250.789V257.225C306.228 259.803 304.95 260.903 303.018 260.625C302.198 260.527 301.461 260.444 300.724 260.444C295.221 260.444 290.175 264.024 290.175 275.88V290.774C290.175 293.63 288.619 295.19 285.769 295.19H280.363C277.514 295.19 275.957 293.63 275.957 290.774V290.787Z" fill="white"/>
<path d="M306.748 286.746C305.372 283.987 306.845 281.967 309.681 281.229L312.53 280.588C315.004 279.947 316.102 281.145 318.034 283.068C319.688 284.907 322.162 285.826 325.094 285.826C328.666 285.826 331.14 284.169 331.14 281.689C331.14 279.669 329.764 278.652 326.734 277.551L320.953 275.531C316.088 273.97 307.652 270.39 307.652 261.836C307.652 253.281 314.99 246.942 325.164 246.942C331.21 246.942 336.714 248.879 340.202 254.117C342.037 256.778 340.661 259.175 337.631 259.913L335.06 260.554C332.669 261.195 331.39 260.373 329.737 258.812C328.458 257.531 326.804 257.071 325.15 257.071C322.217 257.071 320.383 258.91 320.383 261.111C320.383 263.131 322.217 264.148 324.691 264.97L330.557 267.172C340.272 270.39 343.76 275.628 343.941 281.424C343.941 291.357 335.143 296.22 324.955 296.22C316.616 296.22 309.82 293.099 306.706 286.746H306.748Z" fill="white"/>
</svg>
